<svg xmlns="http://www.w3.org/2000/svg" version="1.1" xmlns:xlink="http://www.w3.org/1999/xlink" xmlns:svgjs="http://svgjs.com/svgjs" width="1440" height="1000" preserveAspectRatio="none" viewBox="0 0 1440 1000"><g mask="url(&quot;#SvgjsMask1030&quot;)" fill="none"><rect width="1440" height="1000" x="0" y="0" fill="rgba(217, 233, 223, 1)"></rect><path d="M0,370.451C78.832,368.33,159.27,391.822,231.571,360.332C309.778,326.27,378.676,266.704,415.201,189.616C451.945,112.066,436.865,23.588,431.71,-62.071C426.096,-155.358,451.874,-268.539,383.777,-332.545C314.806,-397.373,200.737,-349.44,107.66,-366.655C27.18,-381.54,-44.212,-437.884,-125.289,-426.696C-211.73,-414.768,-291.096,-367.644,-350.226,-303.473C-410.369,-238.203,-440.266,-152.826,-457.814,-65.824C-476.167,25.165,-494.492,123.839,-453.182,206.961C-412.233,289.358,-326.273,341.791,-239.722,373.015C-162.998,400.694,-81.534,372.645,0,370.451" fill="#cbe1d3"></path><path d="M1440 1419.51C1516.961 1429.0720000000001 1583.308 1365.429 1643.123 1316.066 1697.643 1271.0729999999999 1736.309 1213.006 1767.2440000000001 1149.4470000000001 1798.855 1084.499 1835.842 1016.04 1823.816 944.816 1811.874 874.086 1746.365 829.1949999999999 1703.466 771.706 1656.565 708.854 1631.098 624.399 1560.009 591.288 1486.171 556.8969999999999 1389.756 550.3340000000001 1320.606 593.381 1252.22 635.952 1259.863 738.2719999999999 1215.688 805.633 1179.731 860.461 1112.467 888.769 1087.209 949.276 1057.795 1019.738 1025.224 1105.772 1062.607 1172.35 1100.278 1239.441 1202.548 1227.171 1266.915 1269.326 1332.137 1312.041 1362.63 1409.8980000000001 1440 1419.51" fill="#e7f1eb"></path></g><defs><mask id="SvgjsMask1030"><rect width="1440" height="1000" fill="#ffffff"></rect></mask></defs></svg>